<svg width="71" height="88" viewBox="0 0 71 88" fill="none" xmlns="http://www.w3.org/2000/svg">
<g clip-path="url(#clip0_1_16)">
<path d="M65.6058 39.961C63.8901 41.8955 63.9387 44.4521 65.1659 46.6001C66.4425 48.5931 66.1953 51.11 64.5469 52.967C63.3656 54.3002 61.7239 54.9056 60.0755 54.7651C58.3858 54.621 56.6648 54.9763 55.2618 56.5563C54.1897 57.7651 53.8549 59.2014 53.9467 60.776C54.0578 62.1954 53.6156 63.6556 52.5975 64.803C50.4936 67.1732 47.1467 67.2239 44.7726 65.295C42.5415 63.6874 39.4124 63.998 37.5486 66.0999C36.9259 66.7971 36.5321 67.688 35.8231 68.3107C33.5693 70.2856 30.1432 70.0611 28.1683 67.8073C27.3411 66.8603 27.0824 65.6094 26.2568 64.6624C24.5377 62.7014 22.0242 62.4751 19.7244 63.3949C17.5884 64.413 15.1215 63.8529 13.4844 61.9846C12.1857 60.5028 12 59 12.2577 57.2728C12.6658 55.6108 12.294 53.7062 11.0809 52.323C10.056 51.153 8.73186 50.559 7.29204 50.5068C5.72162 50.4001 4.29166 49.8576 3.23108 48.6475C0.716524 45.7779 2.10801 42.2549 4.29677 39.8114C5.9724 37.5575 5.41688 34.0453 3.38526 32.1905C1.01132 30.2617 0.374602 26.9771 2.26288 24.4314C4.20493 21.8164 7.84342 22.748 9.78848 20.1324C12.1368 16.969 9.04187 13.4811 11.4006 10.3076C12.888 8.3055 15.2166 7.68346 17.5408 8.40975C19.772 9.30539 22.4135 8.62969 23.9146 6.60715C24.6673 5.59943 24.817 4.32719 25.5653 3.31484C27.352 0.909099 30.7486 0.407997 33.1543 2.19473C33.9113 2.75436 34.3812 3.60949 35.0544 4.25582C37.0487 6.16753 40.4323 6.29863 42.4553 4.34425C44.5278 2.18113 47.9947 2.25822 50.1578 4.33065C52.5145 6.58614 51.1414 10.0888 53.4818 12.3347C54.9617 13.7539 56.6433 14.024 58.4248 13.7291C60.0551 13.4593 61.7421 13.9309 63.0277 15.1622C64.8182 16.878 65.1718 19.288 64.1433 21.4928C62.9756 23.5947 63.3179 26.2998 65.1342 28.0411C66.0404 28.9051 67.2901 29.2256 68.1929 30.0886C70.356 32.1611 70.4286 35.5962 68.3562 37.7593C67.5316 38.6157 66.3999 39.0691 65.6058 39.961Z" stroke="#27847A" stroke-width="2.26743" stroke-miterlimit="10"/>
<path d="M53.852 24.8262C54 25 54.0412 25.1819 54.132 25.362C55.5553 28.1843 56.357 31.3738 56.357 34.7505C56.357 46.2814 47.0093 55.629 35.4785 55.629C23.9476 55.629 14.6 46.2814 14.6 34.7505C14.6 23.2197 23.9476 13.8721 35.4785 13.8721C40.5552 13.8721 45.2088 15.684 48.8277 18.6965" stroke="#27847A" stroke-width="2.26743" stroke-miterlimit="10"/>
<path d="M29.4426 73.2062L24.0982 84.8449L19.2936 72.4307L6.43724 76.7389L11.7793 65.0979" stroke="#27847A" stroke-width="2.26743" stroke-miterlimit="10"/>
<path d="M42.7592 73.2062L48.1035 84.8449L52.9082 72.4307L65.7645 76.7389L60.4225 65.0979" stroke="#27847A" stroke-width="2.26743" stroke-miterlimit="10"/>
<path d="M55.1235 17.8242L35.1089 41.5438L28.4381 33.6373" stroke="#27847A" stroke-width="2.26743" stroke-miterlimit="10"/>
</g>
<defs>
<clipPath id="clip0_1_16">
<rect width="71" height="87.7563" fill="white"/>
</clipPath>
</defs>
</svg>
