<svg width="33" height="46" viewBox="0 0 33 46" fill="none" xmlns="http://www.w3.org/2000/svg">
<path fill-rule="evenodd" clip-rule="evenodd" d="M8.59515 6.6199L16.5 4.05146L24.4049 6.6199L29.2903 13.3442V21.6558L24.4049 28.3801L16.5 30.9485L8.59515 28.3801L3.70968 21.6558V13.3442L8.59515 6.6199ZM25.3839 13.8839L15 24.2678L9.11612 18.3839L10.8839 16.6161L15 20.7322L23.6161 12.1161L25.3839 13.8839Z" fill="white"/>
<path fill-rule="evenodd" clip-rule="evenodd" d="M26.1985 4.15122L16.5 1L6.80154 4.15122L0.807568 12.4012V22.5988L6.80154 30.8488L16.5 34L26.1985 30.8488L32.1924 22.5988V12.4012L26.1985 4.15122ZM16.5 3L25.0229 5.76925L30.2903 13.0193V21.9807L25.0229 29.2307L16.5 32L7.97711 29.2307L2.70968 21.9807V13.0193L7.97711 5.76925L16.5 3Z" fill="white"/>
<path d="M5 43.3665L5 30.6077L7.41986 33.7533L18 37L28 33.9313L28 43.3665C28 44.1136 27.2106 44.5969 26.5452 44.2571L16.9548 39.3599C16.6691 39.214 16.3309 39.214 16.0452 39.3599L6.45478 44.2571C5.78942 44.5969 5 44.1136 5 43.3665Z" fill="white"/>
</svg>
