<svg width="34" height="50" viewBox="0 0 34 50" fill="none" xmlns="http://www.w3.org/2000/svg">
<path d="M17.4804 26.5623C22.6774 26.5623 26.8904 22.3493 26.8904 17.1523C26.8904 11.9553 22.6774 7.74226 17.4804 7.74226C12.2834 7.74226 8.07036 11.9553 8.07036 17.1523C8.07036 22.3493 12.2834 26.5623 17.4804 26.5623Z" stroke="white" stroke-width="1.03351" stroke-miterlimit="10"/>
<path d="M14.7598 34.4843L12.3511 39.7299L10.1856 34.1348L4.39123 36.0765L6.79892 30.8298" stroke="white" stroke-width="1.03351" stroke-miterlimit="10"/>
<path d="M20.7618 34.4843L23.1705 39.7299L25.336 34.1348L31.1304 36.0765L28.7227 30.8298" stroke="white" stroke-width="1.03351" stroke-miterlimit="10"/>
<path d="M14.6703 14.4478L20.4117 20.1891" stroke="white" stroke-width="1.3" stroke-linecap="round"/>
<path d="M14.6703 20.1893L20.4117 14.448" stroke="white" stroke-width="1.3" stroke-linecap="round"/>
<path d="M31.0505 19.5062C30.2771 20.3782 30.299 21.5307 30.8522 22.4989C31.4277 23.3973 31.3162 24.5318 30.5732 25.3689C30.0407 25.9698 29.3007 26.2427 28.5577 26.1794C27.796 26.1144 27.0202 26.2746 26.3878 26.9868C25.9045 27.5317 25.7536 28.1791 25.795 28.8889C25.8451 29.5287 25.6458 30.1869 25.1868 30.7041C24.2385 31.7725 22.7298 31.7954 21.6597 30.9259C20.654 30.2012 19.2435 30.3413 18.4033 31.2887C18.1226 31.603 17.9451 32.0046 17.6255 32.2853C16.6096 33.1755 15.0653 33.0743 14.175 32.0583C13.8022 31.6315 13.6856 31.0676 13.3134 30.6407C12.5385 29.7568 11.4055 29.6548 10.3688 30.0694C9.406 30.5283 8.29401 30.2758 7.55606 29.4337C6.97066 28.7657 6.88695 28.0883 7.00311 27.3098C7.18707 26.5606 7.01948 25.7021 6.47265 25.0786C6.01067 24.5512 5.41379 24.2834 4.76477 24.2599C4.05688 24.2118 3.41231 23.9673 2.93424 23.4218C1.80077 22.1283 2.428 20.5402 3.41461 19.4388C4.16993 18.4228 3.91952 16.8397 3.00374 16.0036C1.93365 15.1341 1.64664 13.6536 2.49781 12.5061C3.37321 11.3273 5.01331 11.7472 5.89008 10.5682C6.94861 9.14228 5.55353 7.57006 6.61676 6.13956C7.28723 5.23708 8.33688 4.95669 9.38454 5.28407C10.3903 5.6878 11.581 5.38322 12.2576 4.47153C12.5969 4.01728 12.6644 3.4438 13.0017 2.98747C13.8071 1.90305 15.3381 1.67717 16.4225 2.48257C16.7638 2.73483 16.9756 3.12029 17.279 3.41163C18.178 4.27336 19.7032 4.33246 20.6151 3.45149C21.5493 2.47644 23.1121 2.51119 24.0871 3.44536C25.1494 4.46206 24.5305 6.04093 25.5855 7.0533C26.2525 7.69302 27.0105 7.81478 27.8136 7.68185C28.5485 7.56023 29.3089 7.77281 29.8884 8.32784C30.6955 9.10126 30.8549 10.1876 30.3913 11.1814C29.8649 12.1289 30.0192 13.3483 30.8379 14.1332C31.2464 14.5226 31.8097 14.6671 32.2167 15.0561C33.1917 15.9903 33.2245 17.5387 32.2903 18.5138C31.9186 18.8998 31.4085 19.1042 31.0505 19.5062Z" stroke="white" stroke-width="1.03" stroke-miterlimit="10"/>
</svg>
