<svg width="104" height="64" viewBox="0 0 104 64" fill="none" xmlns="http://www.w3.org/2000/svg">
<path fill-rule="evenodd" clip-rule="evenodd" d="M21.1659 34.852C20.5722 35.7397 20.2552 36.7844 20.2551 37.8533V52.4H8.3V11.5H20.2558V24.9237C20.2558 25.9925 20.5727 27.0371 21.1663 27.9248C21.7599 28.8126 22.6033 29.5033 23.5894 29.9092C23.8843 30.0258 24.1378 30.2278 24.3175 30.4895C24.4972 30.7513 24.595 31.0608 24.5983 31.3786V31.3977C24.5951 31.7156 24.4974 32.0253 24.3177 32.2871C24.138 32.549 23.8844 32.7512 23.5894 32.8677C22.6032 33.2736 21.7596 33.9642 21.1659 34.852ZM31.0089 24.923V11.5H42.964V52.4H31.0089V37.8574C31.0095 36.7846 30.6906 35.736 30.0932 34.846C29.4957 33.956 28.6469 33.265 27.6555 32.8616C27.3578 32.7482 27.1016 32.5467 26.9208 32.2839C26.7401 32.0211 26.6432 31.7094 26.6432 31.3902C26.6432 31.071 26.7401 30.7593 26.9208 30.4965C27.1016 30.2337 27.3578 30.0322 27.6555 29.9188C28.6469 29.5154 29.4957 28.8244 30.0932 27.9344C30.6906 27.0444 31.0095 25.9958 31.0089 24.923Z" fill="#33E58C"/>
<path fill-rule="evenodd" clip-rule="evenodd" d="M64.5775 30.3616C64.2069 30.6158 63.7677 30.7502 63.3188 30.7469C63.0103 30.7496 62.7046 30.6887 62.4205 30.568C62.1365 30.4474 61.8802 30.2695 61.6676 30.0454C61.4549 29.8214 61.2904 29.5559 61.1843 29.2655C61.0782 28.9751 61.0327 28.6659 61.0506 28.3571C61.0429 27.9351 61.1412 27.5179 61.3364 27.1439C61.5317 26.7699 61.8176 26.4512 62.1679 26.2171C62.5182 25.983 62.9216 25.8409 63.341 25.8041C63.7604 25.7673 64.1823 25.8368 64.5679 26.0063L64.587 25.9968V23.2799H65.7474V30.6415H64.5938V30.3719L64.5775 30.3616ZM64.587 27.0281C64.2893 26.8751 63.9605 26.7926 63.626 26.7872C63.4317 26.784 63.2389 26.8219 63.0601 26.8982C62.8813 26.9746 62.7206 27.0878 62.5882 27.2304C62.4559 27.3731 62.355 27.5421 62.292 27.7264C62.229 27.9107 62.2054 28.1063 62.2226 28.3003C62.2045 28.4866 62.2257 28.6745 62.2847 28.8521C62.3438 29.0296 62.4393 29.1927 62.5653 29.3308C62.6912 29.4688 62.8447 29.5788 63.0158 29.6536C63.1869 29.7284 63.3717 29.7663 63.5584 29.7648C63.9257 29.7579 64.2831 29.644 64.587 29.437V27.0281ZM50.3453 23.6631H49.1249V30.6388H50.3453V27.5653H53.7376V30.6388H54.9581V23.6631H53.7376V26.4765H50.3453V23.6631ZM57.7545 30.118L56.4959 32.7582L57.7088 32.7569L60.8486 25.8969H59.6664L59.0521 27.2656L59.0178 27.3429L59.0177 27.343C58.7976 27.8391 58.5702 28.3519 58.36 28.8553H58.3409C58.1395 28.3544 57.947 27.9096 57.7068 27.3621L57.0631 25.8975H55.8038L57.7545 30.118ZM68.2688 25.8996H67.1152L67.118 30.6401H68.2783V27.6632C68.4208 27.4441 68.6162 27.2647 68.8464 27.1417C69.0766 27.0187 69.3341 26.9561 69.595 26.9597C69.7246 26.9589 69.8538 26.975 69.9793 27.0076V25.89C69.8756 25.8631 69.7689 25.8502 69.6619 25.8517C69.3913 25.8502 69.1246 25.9154 68.885 26.0414C68.6455 26.1674 68.4404 26.3504 68.2879 26.5744L68.2688 26.5648V25.8996ZM76.9462 31.3621C77.3971 31.6627 77.9237 31.8288 78.4649 31.8412C78.6379 31.8619 78.8133 31.8444 78.9788 31.79C79.1443 31.7356 79.296 31.6457 79.4232 31.5264C79.5504 31.4071 79.6501 31.2614 79.7153 31.0994C79.7805 30.9375 79.8097 30.7632 79.8007 30.5888V30.2897L79.7816 30.2706C79.4248 30.5041 79.0063 30.625 78.5803 30.6176C78.2765 30.6197 77.9755 30.5601 77.6955 30.4422C77.4154 30.3244 77.1621 30.1507 76.951 29.9319C76.7398 29.713 76.5752 29.4534 76.467 29.1688C76.3588 28.8843 76.3094 28.5806 76.3217 28.2764C76.3078 27.9487 76.3615 27.6217 76.4794 27.3157C76.5972 27.0098 76.7768 26.7315 77.0067 26.4982C77.2367 26.265 77.5121 26.0818 77.8158 25.96C78.1196 25.8383 78.4451 25.7807 78.7721 25.7908C79.1849 25.7855 79.5932 25.8779 79.9638 26.0604L80.9631 25.8873V30.5799C80.9631 32.0171 79.9829 32.8636 78.5059 32.8636C77.9675 32.8667 77.4353 32.7481 76.9489 32.5166L76.9462 31.3621ZM79.7993 27.0582C79.5015 26.8954 79.168 26.8093 78.8287 26.8077C78.4671 26.8288 78.1271 26.9877 77.8785 27.2519C77.6298 27.5161 77.4913 27.8656 77.4913 28.2288C77.4913 28.592 77.6298 28.9415 77.8785 29.2057C78.1271 29.4699 78.4671 29.6288 78.8287 29.6499C79.1748 29.6497 79.5129 29.5455 79.7993 29.3508V27.0582ZM83.7733 29.4907C83.4831 29.2694 83.2865 28.9469 83.2224 28.5871L86.6338 28.5919C86.6538 28.4353 86.6634 28.2775 86.6625 28.1196C86.6857 27.8178 86.6453 27.5144 86.5439 27.2292C86.4425 26.9441 86.2823 26.6835 86.0738 26.4645C85.8654 26.2455 85.6133 26.0729 85.3339 25.958C85.0545 25.8431 84.7542 25.7885 84.4523 25.7976C84.129 25.7948 83.8085 25.8577 83.5101 25.9825C83.2118 26.1074 82.9417 26.2915 82.7163 26.5239C82.4909 26.7562 82.3147 27.032 82.1985 27.3345C82.0823 27.637 82.0284 27.9599 82.0402 28.2839C82.0367 28.6236 82.1039 28.9603 82.2374 29.2725C82.3709 29.5848 82.5677 29.8657 82.8154 30.0975C83.0631 30.3292 83.3563 30.5067 83.6762 30.6187C83.9961 30.7306 84.3357 30.7745 84.6735 30.7476C85.2788 30.7545 85.8754 30.6015 86.4031 30.3041V29.2345C85.9344 29.5799 85.3704 29.7712 84.7888 29.782C84.4259 29.816 84.0634 29.712 83.7733 29.4907ZM85.2191 27.0278C85.4305 27.2219 85.5586 27.4906 85.5765 27.7775H83.2224C83.2659 27.4854 83.4135 27.219 83.6379 27.0276C83.8623 26.8362 84.1482 26.7328 84.4428 26.7366C84.7294 26.7293 85.0076 26.8336 85.2191 27.0278ZM87.7771 25.8989H88.9307V26.4094L88.9498 26.419C89.3732 26.0237 89.9282 25.8005 90.5067 25.7928C90.7383 25.7836 90.9693 25.8235 91.1845 25.9098C91.3998 25.9961 91.5944 26.1269 91.7558 26.2938C91.9123 26.488 92.0285 26.7116 92.0978 26.9514C92.1671 27.1913 92.1879 27.4425 92.1592 27.6906V30.6388H90.9988V27.8931C91.0351 27.6088 90.9666 27.3209 90.8063 27.0835C90.7288 26.9955 90.6322 26.9263 90.524 26.8812C90.4158 26.8361 90.2988 26.8164 90.1818 26.8235C89.9462 26.8364 89.7154 26.8959 89.5027 26.9984C89.29 27.1009 89.0996 27.2445 88.9423 27.4209V30.6374H87.7819L87.7771 25.8989ZM49.1242 34.4753H50.3446V41.4509H49.1242V34.4753ZM51.7288 36.7104H52.8824V37.2209L52.9015 37.2305C53.325 36.8353 53.8799 36.6121 54.4584 36.6043C54.69 36.5952 54.921 36.635 55.1362 36.7213C55.3514 36.8077 55.5461 36.9385 55.7075 37.1053C55.8641 37.2996 55.9803 37.5233 56.0496 37.7633C56.1189 38.0032 56.1397 38.2546 56.1109 38.5027V41.451H54.9506V38.7046C54.9867 38.4203 54.9183 38.1325 54.7581 37.895C54.6805 37.807 54.584 37.7378 54.4757 37.6927C54.3675 37.6477 54.2505 37.6279 54.1335 37.635C53.8979 37.648 53.6671 37.7074 53.4544 37.81C53.2417 37.9125 53.0513 38.056 52.894 38.2324V41.4489H51.7336L51.7288 36.7104ZM58.6071 36.7104H57.4535L57.4583 41.4489H58.6187V38.2324C58.7759 38.056 58.9664 37.9124 59.1791 37.8099C59.3918 37.7074 59.6225 37.6479 59.8582 37.635C59.9752 37.6279 60.0922 37.6477 60.2004 37.6927C60.3086 37.7378 60.4052 37.807 60.4827 37.895C60.643 38.1324 60.7114 38.4203 60.6752 38.7046V41.451H61.8356V38.5027C61.8644 38.2546 61.8435 38.0032 61.7743 37.7633C61.705 37.5233 61.5887 37.2996 61.4322 37.1053C61.2708 36.9385 61.0761 36.8077 60.8609 36.7213C60.6457 36.635 60.4147 36.5952 60.1831 36.6043C59.6046 36.6121 59.0496 36.8353 58.6262 37.2305L58.6071 37.2209V36.7104ZM68.2872 36.7104H69.5158L70.1888 38.4446C70.3936 38.9647 70.5922 39.4951 70.7942 40.0535H70.8133C71.0249 39.4951 71.2167 39.003 71.4379 38.4541L72.1396 36.7104H73.3218L71.3806 41.4509H70.2366L68.2872 36.7104ZM75.1395 41.557C75.6445 41.5666 76.1382 41.4072 76.5428 41.104L76.5619 41.0999C76.6783 41.2436 76.8268 41.3578 76.9955 41.4331C77.1641 41.5085 77.3481 41.543 77.5325 41.5338C77.7308 41.5366 77.9274 41.4972 78.1093 41.4181V40.5024C78.0289 40.5441 77.9403 40.5675 77.8499 40.5709C77.6192 40.5709 77.523 40.3875 77.523 40.1274V38.3097C77.5405 38.0751 77.5046 37.8395 77.418 37.6208C77.3315 37.4021 77.1965 37.2059 77.0233 37.0471C76.5823 36.7301 76.0464 36.5739 75.5046 36.6043C74.9489 36.5948 74.3999 36.7274 73.9095 36.9896V38.0497C74.3343 37.7767 74.8274 37.6296 75.3319 37.6254C75.6171 37.603 75.9006 37.6852 76.1298 37.8567C76.2114 37.9419 76.2742 38.0435 76.3139 38.1547C76.3537 38.2659 76.3696 38.3843 76.3606 38.502V38.7813C76.0613 38.7105 75.7548 38.6749 75.4473 38.6752C74.9828 38.6527 74.5219 38.7666 74.1211 39.003C73.9315 39.1271 73.7765 39.2975 73.6706 39.4981C73.5647 39.6987 73.5114 39.923 73.5156 40.15C73.5096 40.3607 73.5545 40.5698 73.6465 40.7594C73.7385 40.949 73.8748 41.1135 74.0439 41.2388C74.3666 41.4579 74.75 41.5693 75.1395 41.557ZM75.6295 39.4465C75.876 39.4488 76.1212 39.4812 76.3598 39.543L76.3612 40.3423C76.0859 40.5292 75.7614 40.6297 75.4289 40.6311C75.0145 40.6311 74.678 40.4477 74.678 40.0624C74.678 39.6004 75.1517 39.4465 75.6295 39.4465ZM81.8279 41.3353C81.5298 41.4851 81.2002 41.5611 80.8668 41.557C80.653 41.566 80.4396 41.5294 80.2409 41.4497C80.0422 41.3699 79.8626 41.2488 79.714 41.0944C79.4153 40.7086 79.2775 40.2216 79.3297 39.7359V37.7027H78.5031V36.7104H79.3297V35.4484L80.4901 35.2431V36.7077H81.8259V37.7H80.4901V39.569C80.4901 40.0987 80.5863 40.5421 81.1146 40.5421C81.3646 40.5314 81.6084 40.461 81.8259 40.3368L81.8279 41.3353ZM83.7929 34.5435C83.6756 34.463 83.5372 34.419 83.395 34.4171C83.2027 34.416 83.0177 34.4915 82.8808 34.627C82.7439 34.7625 82.6662 34.9469 82.6647 35.1398C82.6647 35.2823 82.7068 35.4217 82.7855 35.5403C82.8643 35.6589 82.9763 35.7515 83.1075 35.8065C83.2387 35.8615 83.3831 35.8763 83.5226 35.8492C83.6622 35.8221 83.7906 35.7542 83.8918 35.6541C83.993 35.554 84.0624 35.4261 84.0913 35.2866C84.1202 35.147 84.1072 35.002 84.0541 34.8698C84.001 34.7376 83.9101 34.6241 83.7929 34.5435ZM83.9691 36.7125H82.8088V41.453H83.9691V36.7125ZM91.2179 36.7104H92.3715V37.2209L92.3906 37.2305C92.8141 36.8353 93.369 36.6121 93.9475 36.6043C94.1791 36.5952 94.4101 36.635 94.6253 36.7213C94.8405 36.8077 95.0352 36.9385 95.1966 37.1053C95.3531 37.2996 95.4694 37.5233 95.5387 37.7633C95.608 38.0032 95.6288 38.2546 95.6 38.5027V41.451H94.4396V38.7046C94.4758 38.4203 94.4074 38.1324 94.2472 37.895C94.1696 37.807 94.073 37.7378 93.9648 37.6927C93.8566 37.6477 93.7396 37.6279 93.6226 37.635C93.387 37.6479 93.1562 37.7074 92.9435 37.8099C92.7308 37.9124 92.5403 38.056 92.3831 38.2324V41.4489H91.2227L91.2179 36.7104ZM49.1242 45.2868H50.3446V52.2624H49.1242V45.2868ZM51.7288 47.5226H52.8824V48.0331L52.9015 48.0427C53.325 47.6475 53.8799 47.4243 54.4584 47.4165C54.69 47.4073 54.921 47.4472 55.1362 47.5335C55.3514 47.6198 55.5461 47.7506 55.7075 47.9174C55.8641 48.1118 55.9803 48.3355 56.0496 48.5754C56.1189 48.8154 56.1397 49.0668 56.1109 49.3149V52.2631H54.9506V49.5168C54.9867 49.2324 54.9183 48.9446 54.7581 48.7072C54.6805 48.6191 54.584 48.5499 54.4757 48.5049C54.3675 48.4598 54.2505 48.4401 54.1335 48.4471C53.8979 48.4602 53.6671 48.5196 53.4544 48.6221C53.2417 48.7246 53.0513 48.8682 52.894 49.0446V52.2611H51.7336L51.7288 47.5226ZM58.4404 45.3557C58.3231 45.2752 58.1847 45.2312 58.0426 45.2293C57.8502 45.2282 57.6653 45.3037 57.5283 45.4392C57.3914 45.5747 57.3137 45.7591 57.3122 45.952C57.3122 46.0945 57.3543 46.2338 57.4331 46.3525C57.5119 46.4711 57.6239 46.5637 57.755 46.6187C57.8862 46.6736 58.0306 46.6885 58.1702 46.6614C58.3097 46.6343 58.4381 46.5664 58.5393 46.4663C58.6405 46.3662 58.7099 46.2383 58.7388 46.0987C58.7676 45.9592 58.7547 45.8142 58.7016 45.682C58.6486 45.5498 58.5577 45.4362 58.4404 45.3557ZM58.6166 47.5246H57.4563V52.2652H58.6166V47.5246ZM62.8478 52.1468C62.5497 52.2966 62.2202 52.3726 61.8868 52.3685C61.6729 52.3775 61.4596 52.3409 61.2609 52.2612C61.0621 52.1814 60.8826 52.0603 60.7339 51.9059C60.4352 51.52 60.2975 51.0331 60.3496 50.5475V48.5142H59.523V47.5219H60.3496V46.2599L61.51 46.0546V47.5192H62.8458V48.5115H61.5114V50.3805C61.5114 50.9101 61.6076 51.3536 62.1359 51.3536C62.3859 51.343 62.6298 51.2726 62.8472 51.1483L62.8478 52.1468ZM64.8121 45.3557C64.6949 45.2752 64.5565 45.2312 64.4143 45.2293C64.2219 45.2282 64.037 45.3037 63.9001 45.4392C63.7631 45.5747 63.6854 45.7591 63.684 45.952C63.684 46.0945 63.726 46.2338 63.8048 46.3525C63.8836 46.4711 63.9956 46.5637 64.1268 46.6187C64.2579 46.6736 64.4023 46.6885 64.5419 46.6614C64.6815 46.6343 64.8099 46.5664 64.9111 46.4663C65.0122 46.3662 65.0816 46.2383 65.1105 46.0987C65.1394 45.9592 65.1265 45.8142 65.0734 45.682C65.0203 45.5498 64.9294 45.4362 64.8121 45.3557ZM64.9884 47.5246H63.828V52.2652H64.9884V47.5246ZM69.0557 51.9161C68.6512 52.2194 68.1574 52.3788 67.6524 52.3692C67.2629 52.3814 66.8795 52.2701 66.5569 52.051C66.3878 51.9257 66.2514 51.7612 66.1594 51.5716C66.0674 51.382 66.0225 51.1729 66.0286 50.9622C66.0244 50.7353 66.0778 50.5112 66.1837 50.3107C66.2896 50.1102 66.4446 49.9399 66.634 49.8159C67.0348 49.5795 67.4958 49.4656 67.9602 49.488C68.2677 49.4878 68.5742 49.5234 68.8735 49.5941V49.3149C68.8825 49.1971 68.8666 49.0788 68.8268 48.9675C68.7871 48.8563 68.7244 48.7548 68.6428 48.6696C68.4135 48.4981 68.13 48.4159 67.8449 48.4382C67.3403 48.4424 66.8472 48.5895 66.4224 48.8626V47.8025C66.9129 47.5405 67.4619 47.4079 68.0176 47.4172C68.5594 47.3869 69.0953 47.5434 69.5363 47.8606C69.7095 48.0194 69.8445 48.2156 69.931 48.4343C70.0176 48.653 70.0534 48.8886 70.0359 49.1233V50.9396C70.0359 51.1996 70.1321 51.383 70.3629 51.383C70.4533 51.3797 70.5419 51.3563 70.6222 51.3146V52.2296C70.4404 52.3088 70.2437 52.3482 70.0455 52.3453C69.8611 52.3545 69.6771 52.32 69.5084 52.2446C69.3398 52.1693 69.1913 52.0551 69.0749 51.9114L69.0557 51.9161ZM68.8728 50.3551C68.6342 50.2934 68.3889 50.261 68.1425 50.2586C67.6647 50.2586 67.191 50.4126 67.191 50.8746C67.191 51.2598 67.5275 51.4433 67.9418 51.4433C68.2743 51.4419 68.5989 51.3414 68.8742 51.1545L68.8728 50.3551ZM73.3811 52.3685C73.7145 52.3726 74.0441 52.2966 74.3422 52.1468L74.3402 51.1483C74.1228 51.2726 73.8789 51.343 73.6289 51.3536C73.1006 51.3536 73.0044 50.9101 73.0044 50.3805V48.5115H74.3402V47.5192H73.0044V46.0546L71.844 46.2599V47.5219H71.0174V48.5142H71.844V50.5475C71.7919 51.0331 71.9296 51.52 72.2283 51.9059C72.3769 52.0603 72.5565 52.1814 72.7552 52.2612C72.9539 52.3409 73.1673 52.3775 73.3811 52.3685ZM75.908 45.2293C76.0501 45.2312 76.1885 45.2752 76.3058 45.3557C76.4231 45.4362 76.514 45.5498 76.5671 45.682C76.6202 45.8142 76.6331 45.9592 76.6042 46.0987C76.5753 46.2383 76.5059 46.3662 76.4048 46.4663C76.3036 46.5664 76.1752 46.6343 76.0356 46.6614C75.8961 46.6885 75.7516 46.6736 75.6205 46.6187C75.4893 46.5637 75.3773 46.4711 75.2985 46.3525C75.2197 46.2338 75.1777 46.0945 75.1776 45.952C75.1791 45.7591 75.2568 45.5747 75.3937 45.4392C75.5307 45.3037 75.7156 45.2282 75.908 45.2293ZM75.3217 47.5246H76.482V52.2652H75.3217V47.5246ZM78.5304 47.5219H77.3018L79.2505 52.2625H80.3945L82.3357 47.5219H81.1535L80.4518 49.2657C80.2307 49.8145 80.0389 50.3065 79.8273 50.865H79.8082C79.6068 50.3065 79.4075 49.7762 79.2028 49.2561L78.5304 47.5219ZM83.808 50.2107C83.8721 50.5706 84.0688 50.8931 84.3589 51.1144C84.6491 51.3357 85.0115 51.4397 85.3745 51.4056C85.9561 51.3948 86.5201 51.2036 86.9888 50.8581V51.9278C86.4611 52.2253 85.8645 52.3783 85.2592 52.3713C84.9214 52.3982 84.5818 52.3543 84.2619 52.2423C83.942 52.1304 83.6488 51.9529 83.4011 51.7211C83.1534 51.4894 82.9565 51.2084 82.823 50.8962C82.6896 50.584 82.6224 50.2473 82.6258 49.9076C82.6142 49.5837 82.6681 49.2608 82.7844 48.9584C82.9006 48.656 83.0768 48.3803 83.3022 48.148C83.5276 47.9157 83.7976 47.7316 84.096 47.6069C84.3943 47.4821 84.7148 47.4192 85.038 47.422C85.3398 47.4128 85.6402 47.4675 85.9196 47.5824C86.1989 47.6973 86.451 47.8698 86.6595 48.0889C86.868 48.3079 87.0281 48.5684 87.1296 48.8536C87.231 49.1388 87.2714 49.4422 87.2482 49.744C87.2491 49.9019 87.2395 50.0596 87.2195 50.2162L83.808 50.2107ZM86.1622 49.4011C86.1443 49.1143 86.0161 48.8455 85.8047 48.6514C85.5933 48.4573 85.315 48.3529 85.0285 48.3602C84.7339 48.3565 84.4479 48.4599 84.2236 48.6512C83.9992 48.8426 83.8516 49.109 83.808 49.4011H86.1622ZM74.3125 26.2648C73.9186 25.9814 73.4502 25.8205 72.9657 25.8019C72.6334 25.7887 72.3018 25.843 71.9909 25.9616C71.68 26.0801 71.3962 26.2604 71.1566 26.4917C70.9169 26.7229 70.7264 27.0004 70.5964 27.3074C70.4663 27.6143 70.3996 27.9445 70.4 28.2779C70.4 28.764 70.5425 29.2394 70.8099 29.6449C71.0773 30.0504 71.4577 30.3681 71.9039 30.5584C72.35 30.7487 72.8421 30.8033 73.3189 30.7153C73.7957 30.6274 74.2362 30.4007 74.5855 30.0636C74.9348 29.7265 75.1775 29.2939 75.2834 28.8195C75.3893 28.3451 75.3538 27.85 75.1811 27.3958C75.0085 26.9415 74.7064 26.5482 74.3125 26.2648ZM72.8043 29.7104C73.0934 29.7201 73.3788 29.643 73.6238 29.4891C73.8689 29.3351 74.0624 29.1112 74.1798 28.8462C74.2971 28.5812 74.3328 28.2871 74.2823 28.0015C74.2319 27.716 74.0975 27.4522 73.8964 27.2437C73.6954 27.0353 73.4369 26.8918 73.154 26.8317C72.8711 26.7715 72.5767 26.7975 72.3085 26.9062C72.0404 27.0149 71.8108 27.2014 71.6491 27.4418C71.4875 27.6822 71.401 27.9655 71.401 28.2555C71.3938 28.4445 71.4248 28.6329 71.4922 28.8096C71.5596 28.9862 71.6619 29.1473 71.793 29.2832C71.9242 29.4192 72.0813 29.5271 72.2551 29.6005C72.4289 29.6739 72.6157 29.7113 72.8043 29.7104ZM87.6657 36.5019C88.1502 36.5205 88.6186 36.6814 89.0125 36.9648C89.4064 37.2482 89.7085 37.6415 89.8811 38.0958C90.0538 38.55 90.0893 39.0451 89.9834 39.5195C89.8775 39.9939 89.6348 40.4265 89.2855 40.7636C88.9362 41.1007 88.4957 41.3274 88.0189 41.4153C87.5421 41.5033 87.05 41.4487 86.6039 41.2584C86.1577 41.0681 85.7773 40.7504 85.5099 40.3449C85.2425 39.9394 85.1 39.464 85.1 38.9779C85.0996 38.6445 85.1663 38.3143 85.2964 38.0074C85.4264 37.7004 85.6169 37.4229 85.8566 37.1917C86.0962 36.9604 86.38 36.7801 86.6909 36.6616C87.0018 36.543 87.3334 36.4887 87.6657 36.5019ZM88.3238 40.1891C88.0788 40.343 87.7934 40.4201 87.5043 40.4104C87.3157 40.4113 87.1289 40.3739 86.9551 40.3005C86.7813 40.2271 86.6242 40.1192 86.493 39.9832C86.3619 39.8473 86.2596 39.6862 86.1922 39.5096C86.1248 39.3329 86.0938 39.1445 86.101 38.9555C86.101 38.6655 86.1875 38.3822 86.3491 38.1418C86.5108 37.9014 86.7404 37.7149 87.0085 37.6062C87.2767 37.4975 87.5711 37.4715 87.854 37.5317C88.1369 37.5918 88.3954 37.7353 88.5964 37.9437C88.7975 38.1522 88.9319 38.416 88.9823 38.7015C89.0328 38.9871 88.9971 39.2812 88.8798 39.5462C88.7624 39.8112 88.5689 40.0351 88.3238 40.1891ZM66.8125 37.0648C66.4186 36.7814 65.9502 36.6205 65.4657 36.6019C65.1334 36.5887 64.8018 36.643 64.4909 36.7616C64.18 36.8801 63.8962 37.0604 63.6566 37.2917C63.4169 37.5229 63.2264 37.8004 63.0964 38.1074C62.9663 38.4143 62.8996 38.7445 62.9 39.0779C62.9 39.564 63.0425 40.0394 63.3099 40.4449C63.5773 40.8504 63.9577 41.1681 64.4039 41.3584C64.85 41.5487 65.3421 41.6033 65.8189 41.5153C66.2957 41.4274 66.7362 41.2007 67.0855 40.8636C67.4348 40.5265 67.6775 40.0939 67.7834 39.6195C67.8893 39.1451 67.8538 38.65 67.6811 38.1958C67.5085 37.7415 67.2064 37.3482 66.8125 37.0648ZM65.3043 40.5104C65.5934 40.5201 65.8788 40.443 66.1238 40.2891C66.3689 40.1351 66.5624 39.9112 66.6798 39.6462C66.7971 39.3812 66.8328 39.0871 66.7823 38.8015C66.7319 38.516 66.5975 38.2522 66.3964 38.0437C66.1954 37.8353 65.9369 37.6918 65.654 37.6317C65.3711 37.5715 65.0767 37.5975 64.8085 37.7062C64.5404 37.8149 64.3108 38.0014 64.1491 38.2418C63.9875 38.4822 63.901 38.7655 63.901 39.0555C63.8938 39.2445 63.9248 39.4329 63.9922 39.6096C64.0596 39.7862 64.1619 39.9473 64.293 40.0832C64.4242 40.2192 64.5813 40.3271 64.7551 40.4005C64.9289 40.4739 65.1157 40.5113 65.3043 40.5104Z" fill="#666666"/>
</svg>
