<svg width="26" height="26" viewBox="0 0 26 26" fill="none" xmlns="http://www.w3.org/2000/svg">
<path fill-rule="evenodd" clip-rule="evenodd" d="M7 3V5H12V3H13V5H16C17.1046 5 18 5.89543 18 7V20C18 21.1046 17.1046 22 16 22H2C0.89543 22 0 21.1046 0 20V7C0 5.89543 0.895431 5 2 5H6V3H7ZM12 6V7H13V6H16C16.5523 6 17 6.44772 17 7V20C17 20.5523 16.5523 21 16 21H2C1.44772 21 1 20.5523 1 20V7C1 6.44772 1.44772 6 2 6H6V7H7V6H12ZM4 10H6V12H4V10ZM8 10H10V12H8V10ZM14 12V10H12V12H14ZM4 16H6V18H4V16ZM10 16H8V18H10V16ZM12 18V16H14V18H12Z" fill="#AAAAAA"/>
</svg>
