<svg width="26" height="26" viewBox="0 0 26 26" fill="none" xmlns="http://www.w3.org/2000/svg">
<path opacity="0.3" fill-rule="evenodd" clip-rule="evenodd" d="M8.5 20C12.6421 20 16 16.6421 16 12.5C16 8.35786 12.6421 5 8.5 5C4.35786 5 1 8.35786 1 12.5C1 16.6421 4.35786 20 8.5 20ZM8.5 21C13.1944 21 17 17.1944 17 12.5C17 7.80558 13.1944 4 8.5 4C3.80558 4 0 7.80558 0 12.5C0 17.1944 3.80558 21 8.5 21Z" fill="black"/>
<path opacity="0.4" fill-rule="evenodd" clip-rule="evenodd" d="M8.5 7.78571C8.89449 7.78571 9.21428 8.10551 9.21428 8.5V12.6759L12.9704 15.9624C13.2672 16.2222 13.2973 16.6735 13.0376 16.9704C12.7778 17.2672 12.3265 17.2973 12.0296 17.0376L7.78571 13.3241V8.5C7.78571 8.10551 8.10551 7.78571 8.5 7.78571Z" fill="black"/>
</svg>
