<svg width="32" height="36" viewBox="0 0 32 36" fill="none" xmlns="http://www.w3.org/2000/svg">
<rect x="1" y="3" width="29" height="29" rx="12.325" fill="#E3291A"/>
<path d="M9.5 17.9117C9.5 19.5903 10.1487 21.1173 11.2091 22.2558L10.1678 23.3379C8.82445 21.9255 8 20.0149 8 17.9117C8 15.6215 8.97765 13.5596 10.5384 12.1207L11.5787 13.2018C10.3014 14.3676 9.5 16.0461 9.5 17.9117Z" fill="white"/>
<path d="M21.4565 23.4671L20.4162 22.386C21.5502 21.2351 22.25 19.6551 22.25 17.9117C22.25 15.9813 21.3919 14.2512 20.0364 13.0822L21.0777 12C22.7162 13.4431 23.75 15.5567 23.75 17.9117C23.75 20.0797 22.8739 22.0431 21.4565 23.4671Z" fill="white"/>
<path d="M13.0853 20.306C12.5644 19.695 12.25 18.9026 12.25 18.0367C12.25 16.9212 12.7719 15.9276 13.5848 15.2866L12.5412 14.2021C11.4463 15.1193 10.75 16.4967 10.75 18.0367C10.75 19.3273 11.2389 20.5036 12.0416 21.3906L13.0853 20.306Z" fill="white"/>
<path d="M18.4147 20.306L19.4584 21.3906C20.2611 20.5036 20.75 19.3273 20.75 18.0367C20.75 16.4967 20.0537 15.1193 18.9588 14.2021L17.9152 15.2866C18.7281 15.9276 19.25 16.9212 19.25 18.0367C19.25 18.9026 18.9356 19.695 18.4147 20.306Z" fill="white"/>
<path d="M17.75 18.0367C17.75 19.1413 16.8546 20.0367 15.75 20.0367C14.6454 20.0367 13.75 19.1413 13.75 18.0367C13.75 16.9322 14.6454 16.0367 15.75 16.0367C16.8546 16.0367 17.75 16.9322 17.75 18.0367Z" fill="white"/>
</svg>
