<svg width="30" height="30" viewBox="0 0 30 30" fill="none" xmlns="http://www.w3.org/2000/svg">
<path d="M10.5104 14.1104V9.64143C10.5104 7.17329 12.5112 5.17246 14.9793 5.17246V5.17246C17.4475 5.17246 19.4483 7.17329 19.4483 9.64143V14.1104" stroke="white"/>
<path d="M12.9705 21.4104L12.7738 22.0988H13.4897H16.469H17.1849L16.9882 21.4104L16.312 19.0436L16.563 18.6671C16.8538 18.2309 17.009 17.7183 17.009 17.194C17.009 16.4691 16.5994 15.8064 15.951 15.4823L15.887 15.4502C15.3156 15.1645 14.643 15.1645 14.0716 15.4502L14.0076 15.4823C13.3592 15.8064 12.9497 16.4691 12.9497 17.194C12.9497 17.7183 13.1049 18.2309 13.3957 18.6671L13.6467 19.0436L12.9705 21.4104ZM13.6944 19.1152C13.6943 19.1151 13.6943 19.115 13.6942 19.1149L13.6944 19.1152ZM8.81584 14.0607C8.81584 13.5636 9.21879 13.1607 9.71584 13.1607H20.2427C20.7398 13.1607 21.1427 13.5636 21.1427 14.0607V22.3531C21.1427 22.8502 20.7398 23.2531 20.2427 23.2531H9.71585C9.21879 23.2531 8.81584 22.8502 8.81584 22.3531V14.0607Z" fill="white" stroke="white" stroke-width="1.08"/>
</svg>
