<svg width="179" height="93" viewBox="0 0 179 93" fill="none" xmlns="http://www.w3.org/2000/svg">
<g clip-path="url(#clip0_1_2)">
<rect width="179" height="93" fill="#228077"/>
<path d="M175.411 0H165.426C163.696 0.331772 161.804 0.499992 159.75 0.499992C148.842 0.5 140 9.34238 140 20.25C140 31.1576 148.842 40 159.75 40C169.133 40 176.987 33.4573 179 24.6854V4.65638C178.813 4.95162 178.635 5.25253 178.467 5.55874C176.177 9.72784 175.622 14.8818 175.501 20.1586L175.5 20.2043V20.25C175.5 28.9485 168.448 36 159.75 36C151.052 36 144 28.9485 144 20.25C144 11.5515 151.052 4.5 159.75 4.49999C165.958 4.49999 171.318 3.09881 175.411 0Z" fill="#2E8E84"/>
<path d="M165.426 93H175.411C176.13 92.4556 176.81 91.8587 177.449 91.2079C178.008 90.6381 178.524 90.038 179 89.4094V79.4222C177.571 86.8741 173.073 91.5339 165.426 93Z" fill="#2E8E84"/>
<path d="M23.7916 93H3.59482C7.48953 90.4561 12.729 89.4436 19.2665 89.5C28.2538 89.4914 35 82.4887 35 73.75C35 65.0515 27.9485 58 19.25 58C10.5638 58 3.5199 65.0319 3.50003 73.7132L3.5 73.75C3.50003 78.3686 2.72275 82.5946 0.974091 86.1821C0.677643 86.7903 0.353241 87.3801 0 87.9504V69.3146C2.01285 60.5427 9.86737 54 19.25 54C30.1576 54 39 62.8424 39 73.75C39 83.1326 32.7106 90.9871 23.7916 93Z" fill="#2E8E84"/>
<path d="M0 13.8061C1.34982 5.07221 5.83325 0.380005 19.25 0.5C20.8229 0.5 22.3419 0.327156 23.7916 0H3.59482C2.35413 0.810379 1.24991 1.77615 0.283661 2.91229C0.187195 3.02572 0.0926514 3.14027 0 3.2559V13.8061Z" fill="#2E8E84"/>
<path fill-rule="evenodd" clip-rule="evenodd" d="M89.4999 26.7041C89.4752 15.8176 80.6423 7 69.75 7C58.8424 7 50 15.8424 50 26.75C50 37.6576 58.5 46.5 69.75 46.5C86.1614 46.3532 89.2066 53.4066 89.5 66.25C89.5 77.1576 98.3424 86 109.25 86C120.158 86 129 77.1576 129 66.25C129 55.3424 120.158 46.5 109.25 46.5C96 46.5 89.4999 39.5 89.5 26.75L89.4999 26.7041ZM93.5 66.2043L93.499 66.1586C93.3784 60.8818 92.823 55.7278 90.5331 51.5587C90.0197 50.6238 89.4189 49.7384 88.7163 48.9123C84.7169 44.2096 78.3535 42.4256 69.7335 42.5C60.7462 42.4914 54 35.4887 54 26.75C54 18.0515 61.0515 11 69.75 11C78.4362 11 85.4801 18.0319 85.4999 26.7132L85.5 26.75C85.5 31.3686 86.2773 35.5946 88.0259 39.1821C88.9315 41.0399 90.0976 42.7266 91.5513 44.2079C95.8252 48.5632 101.951 50.5 109.25 50.5C117.948 50.5 125 57.5515 125 66.25C125 74.9485 117.948 82 109.25 82C100.552 82 93.5 74.9485 93.5 66.25V66.2043Z" fill="#2E8E84"/>
</g>
<defs>
<clipPath id="clip0_1_2">
<rect width="179" height="93" fill="white"/>
</clipPath>
</defs>
</svg>
