<svg width="74" height="74" viewBox="0 0 74 74" fill="none" xmlns="http://www.w3.org/2000/svg">
<g clip-path="url(#clip0_1_3)">
<rect opacity="0.8" x="0.5" y="0.5" width="73" height="73" rx="36.5" fill="#1A1A1A" stroke="white"/>
<path d="M29.3741 23.7918C36.6688 19.5802 45.9965 22.0795 50.2081 29.3742C54.4197 36.6689 51.9204 45.9966 44.6257 50.2082C44.1474 50.4843 43.9835 51.0959 44.2596 51.5742C44.5358 52.0525 45.1474 52.2164 45.6257 51.9403C53.8769 47.1764 56.704 36.6255 51.9402 28.3742C47.1763 20.1229 36.6254 17.2958 28.3741 22.0597C20.1229 26.8236 17.2958 37.3745 22.0596 45.6258C23.8663 48.755 26.5066 51.1047 29.537 52.5554L22.7282 54.1043C22.1896 54.2268 21.8524 54.7626 21.9749 55.3012C22.0974 55.8397 22.6333 56.1769 23.1718 56.0544L34.5051 53.4764L34.2731 52.4949C34.0035 51.3544 33.2982 49.0061 32.6728 46.9795C32.3576 45.9582 32.0589 45.0062 31.8389 44.3096C31.729 43.9613 31.6386 43.6767 31.5758 43.4791L31.4774 43.1703C31.3091 42.6443 30.7463 42.3543 30.2203 42.5225C29.6942 42.6908 29.4042 43.2536 29.5725 43.7797L29.6699 44.0853C29.7323 44.2817 29.8222 44.565 29.9317 44.9118C30.1508 45.6056 30.4482 46.5533 30.7617 47.5693C31.1627 48.8686 31.5839 50.2601 31.9023 51.3747C28.5986 50.2051 25.6812 47.8984 23.7917 44.6258C19.5801 37.3311 22.0794 28.0034 29.3741 23.7918Z" fill="white"/>
</g>
<defs>
<clipPath id="clip0_1_3">
<rect width="74" height="74" fill="white"/>
</clipPath>
</defs>
</svg>
