<svg width="29" height="29" viewBox="0 0 29 29" fill="none" xmlns="http://www.w3.org/2000/svg">
<g clip-path="url(#clip0_1_2)">
<path d="M28.5 14.5C28.5 16.3385 28.1379 18.159 27.4343 19.8576C26.7307 21.5561 25.6995 23.0995 24.3995 24.3995C23.0995 25.6995 21.5561 26.7307 19.8576 27.4343C18.159 28.1379 16.3385 28.5 14.5 28.5C12.6615 28.5 10.841 28.1379 9.14243 27.4343C7.44387 26.7307 5.90052 25.6995 4.6005 24.3995C3.30048 23.0995 2.26925 21.5561 1.56569 19.8576C0.86212 18.159 0.499999 16.3385 0.5 14.5C0.500001 12.6615 0.862122 10.841 1.56569 9.14243C2.26926 7.44387 3.30049 5.90052 4.60051 4.6005C5.90053 3.30048 7.44388 2.26925 9.14244 1.56568C10.841 0.862119 12.6615 0.499999 14.5 0.5C16.3385 0.500001 18.159 0.862123 19.8576 1.56569C21.5561 2.26926 23.0995 3.30049 24.3995 4.60051C25.6995 5.90053 26.7308 7.44388 27.4343 9.14244C28.1379 10.841 28.5 12.6615 28.5 14.5L28.5 14.5Z" stroke="#33E58C"/>
</g>
<defs>
<clipPath id="clip0_1_2">
<rect width="29" height="29" fill="white"/>
</clipPath>
</defs>
</svg>
