<svg width="29" height="29" viewBox="0 0 29 29" fill="none" xmlns="http://www.w3.org/2000/svg">
<g clip-path="url(#clip0_1_2)">
<circle cx="14.5" cy="14.5" r="13" fill="#C5C5C5" stroke="#C5C5C5" stroke-width="3"/>
<circle cx="14.5" cy="14.5" r="10.5" fill="#EFEFEF"/>
<path d="M17.6 17L17.6 18.0343L17.2828 17.7172C17.1266 17.561 16.8733 17.561 16.7171 17.7172C16.5609 17.8734 16.5609 18.1267 16.7171 18.2829L17.7125 19.2782L17.7171 19.2828C17.7553 19.321 17.7993 19.3499 17.8463 19.3695C17.8918 19.3884 17.9416 19.3992 17.9938 19.4L17.9976 19.4L17.9999 19.4C18.0074 19.4 18.0148 19.3998 18.0221 19.3994C18.057 19.3975 18.0907 19.3911 18.1227 19.3809C18.1813 19.362 18.2364 19.3294 18.2829 19.2829L18.2875 19.2782L19.2828 18.2828C19.439 18.1266 19.439 17.8733 19.2828 17.7171C19.1266 17.5609 18.8733 17.5609 18.7171 17.7171L18.4 18.0343L18.4 17C18.4 17 18.4 17 18.4 17L17.6 17Z" fill="#2E2E2E"/>
<path d="M14.6 17L14.6 21.0343L14.2828 20.7172C14.1266 20.561 13.8733 20.561 13.7171 20.7172C13.5609 20.8734 13.5609 21.1267 13.7171 21.2829L14.7125 22.2782L14.7171 22.2829C14.7946 22.3604 14.896 22.3994 14.9976 22.4C15.1008 22.4007 15.2042 22.3616 15.2829 22.2829L15.2875 22.2782L16.2828 21.2828C16.439 21.1266 16.439 20.8733 16.2828 20.7171C16.1266 20.5609 15.8733 20.5609 15.7171 20.7171L15.4 21.0343L15.4 17" fill="#2E2E2E"/>
<path d="M15.4 17L14.6 17Z" fill="#2E2E2E"/>
<path d="M11.6 17L11.6 19.0344L11.2828 18.7172C11.1266 18.561 10.8733 18.561 10.7171 18.7172C10.5609 18.8734 10.5609 19.1267 10.7171 19.2829L11.7125 20.2782L11.7171 20.2829C11.7959 20.3616 11.8992 20.4007 12.0024 20.4C12.104 20.3994 12.2054 20.3604 12.2829 20.2829L12.2875 20.2782L13.2828 19.2828C13.439 19.1266 13.439 18.8733 13.2828 18.7171C13.1266 18.5609 12.8733 18.5609 12.7171 18.7171L12.4 19.0343L12.4 17H11.6Z" fill="#2E2E2E"/>
<path d="M15.4 17H17.6L17.6 14.1028C17.6 13.8819 17.7791 13.7028 18 13.7028C18.2209 13.7028 18.4 13.8819 18.4 14.1028L18.4 17H20C21.6569 17 23 15.6569 23 14C23 12.4934 21.8894 11.2462 20.4423 11.0324C20.3175 9.03256 18.6561 7.44922 16.6248 7.44922C15.0917 7.44922 13.7692 8.35121 13.1592 9.65347C12.851 9.34165 12.423 9.14844 11.95 9.14844C11.0111 9.14844 10.25 9.90955 10.25 10.8484C10.25 11.0051 10.2712 11.1568 10.3108 11.3008C9.91481 11.1081 9.47003 11 9 11C7.34315 11 6 12.3431 6 14C6 15.6569 7.34315 17 9 17H11.5999L11.6 15.1028C11.6 14.8819 11.7791 14.7028 12 14.7029C12.2209 14.7029 12.4 14.882 12.4 15.1029L12.3999 17H14.6L14.6 13.1028C14.6 12.8819 14.7791 12.7028 15 12.7028C15.2209 12.7028 15.4 12.8819 15.4 13.1028L15.4 17Z" fill="#2E2E2E"/>
</g>
<defs>
<clipPath id="clip0_1_2">
<rect width="29" height="29" fill="white"/>
</clipPath>
</defs>
</svg>
