<svg width="55" height="55" viewBox="0 0 55 55" fill="none" xmlns="http://www.w3.org/2000/svg">
<g clip-path="url(#clip0_1_8)">
<path fill-rule="evenodd" clip-rule="evenodd" d="M27.5 52.2448C41.1381 52.2448 52.1939 41.189 52.1939 27.551C52.1939 13.9129 41.1381 2.85708 27.5 2.85708C13.8619 2.85708 2.80612 13.9129 2.80612 27.551C2.80612 41.189 13.8619 52.2448 27.5 52.2448ZM27.5 55.051C42.6878 55.051 55 42.7388 55 27.551C55 12.3631 42.6878 0.0509624 27.5 0.0509624C12.3122 0.0509624 0 12.3631 0 27.551C0 42.7388 12.3122 55.051 27.5 55.051Z" fill="white"/>
<path d="M30.3147 14.5443L29.8787 33.205H26.1356L25.6814 14.5443H30.3147ZM25.5542 38.9286C25.5542 38.2623 25.7722 37.7051 26.2083 37.2569C26.6565 36.7966 27.2743 36.5665 28.0617 36.5665C28.8369 36.5665 29.4486 36.7966 29.8968 37.2569C30.345 37.7051 30.5691 38.2623 30.5691 38.9286C30.5691 39.5706 30.345 40.1217 29.8968 40.5821C29.4486 41.0303 28.8369 41.2543 28.0617 41.2543C27.2743 41.2543 26.6565 41.0303 26.2083 40.5821C25.7722 40.1217 25.5542 39.5706 25.5542 38.9286Z" fill="white"/>
</g>
<defs>
<clipPath id="clip0_1_8">
<rect width="55" height="55" fill="white"/>
</clipPath>
</defs>
</svg>
